<svg version="1.2" baseProfile="tiny-ps" xmlns="http://www.w3.org/2000/svg" viewBox="0 0 576 512" width="576" height="512">
	<title>eye-branco-svg</title>
	<style>
		tspan { white-space:pre }
		.s0 { fill: #ffffff } 
	</style>
	<path id="Layer" fill-rule="evenodd" class="s0" d="m572.52 241.4c1.14 2.25 2.01 4.64 2.6 7.09c0.59 2.46 0.88 4.98 0.88 7.5c0 2.53-0.3 5.04-0.88 7.5c-0.59 2.46-1.46 4.84-2.6 7.09c-54.2 105.77-161.59 177.41-284.52 177.41c-122.93 0-230.29-71.59-284.52-177.4c-1.14-2.25-2.01-4.64-2.6-7.09c-0.59-2.46-0.88-4.98-0.88-7.5c0-2.53 0.3-5.04 0.88-7.5c0.59-2.46 1.46-4.84 2.6-7.09c54.2-105.77 161.59-177.41 284.52-177.41c122.93 0 230.29 71.59 284.52 177.4zm-46.59 14.6c-48.84-89-139.27-144-237.93-144c-98.66 0-189.09 55-237.93 144c48.84 89 139.28 144 237.93 144c98.66 0 189.1-55 237.93-144zm-237.93-112c48.08-0.15 90.86 30.49 106.21 76.06c15.34 45.57-0.19 95.84-38.57 124.81c-38.38 28.97-90.99 30.13-130.6 2.88c-39.62-27.25-57.35-76.79-44.03-122.99c2.05 1.16 4.17 2.2 6.35 3.09c2.18 0.89 4.41 1.65 6.69 2.26c2.28 0.61 4.59 1.07 6.92 1.39c2.33 0.32 4.69 0.48 7.04 0.5c7.35 0 14.64-1.45 21.43-4.26c6.79-2.81 12.97-6.94 18.17-12.14c5.2-5.2 9.33-11.37 12.14-18.17c2.81-6.79 4.26-14.08 4.26-21.43c-0.02-2.36-0.18-4.71-0.5-7.04c-0.32-2.33-0.78-4.65-1.39-6.92c-0.61-2.28-1.36-4.51-2.26-6.69c-0.89-2.18-1.93-4.3-3.09-6.35c2.53-0.79 5.08-1.48 7.66-2.09c2.58-0.6 5.17-1.12 7.79-1.53c2.61-0.42 5.24-0.74 7.87-0.97c2.64-0.23 5.28-0.37 7.92-0.41z" />
</svg>