<svg version="1.2" baseProfile="tiny-ps" xmlns="http://www.w3.org/2000/svg" viewBox="0 0 496 512" width="496" height="512">
	<title>user-circle-solid-svg</title>
	<style>
		tspan { white-space:pre }
		.s0 { fill: #ffffff } 
	</style>
	<path id="Layer" fill-rule="evenodd" class="s0" d="m496 256c0 137-111 248-248 248c-137 0-248-111-248-248c0-137 111-248 248-248c137 0 248 111 248 248zm-336-64c0 48.6 39.4 88 88 88c48.6 0 88-39.4 88-88c0-48.6-39.4-88-88-88c-48.6 0-88 39.4-88 88zm234.5 187.8c-18.8-35.4-55.6-59.8-98.5-59.8c-2.4 0-4.8 0.4-7.1 1.1c-12.9 4.2-26.6 6.9-40.9 6.9c-14.3 0-27.9-2.7-40.9-6.9c-2.3-0.7-4.7-1.1-7.1-1.1c-42.9 0-79.7 24.4-98.5 59.8c35.2 41.6 87.8 68.2 146.5 68.2c58.7 0 111.3-26.6 146.5-68.2z" />
</svg>